<svg xmlns="http://www.w3.org/2000/svg" width="95" height="83" viewBox="0 0 95 83" fill="none">
  <defs>
    <linearGradient id="bgGradient" x1="0%" y1="0%" x2="100%" y2="100%">
      <stop offset="0%" stop-color="#4A90E2"/>
      <stop offset="100%" stop-color="#50E3C2"/>
    </linearGradient>
    <filter id="inner-shadow" x="-50%" y="-50%" width="200%" height="200%">
      <feGaussianBlur in="SourceAlpha" stdDeviation="2" result="blur"/>
      <feOffset dy="1" result="offsetBlur"/>
      <feComposite in="SourceAlpha" in2="offsetBlur" operator="out" result="innerShadow"/>
      <feComposite in="innerShadow" in2="SourceAlpha" operator="in" result="innerShadow"/>
      <feMerge>
        <feMergeNode in="innerShadow"/>
        <feMergeNode in="SourceGraphic"/>
      </feMerge>
    </filter>
  </defs>
  <path fill="url(#bgGradient)" filter="url(#inner-shadow)" d="M66.657 0H28.343a7.948 7.948 0 0 0-6.887 3.979L2.288 37.235a7.948 7.948 0 0 0 0 7.938L21.456 78.43a7.948 7.948 0 0 0 6.887 3.979h38.314a7.948 7.948 0 0 0 6.886-3.98l19.17-33.256a7.948 7.948 0 0 0 0-7.938L73.542 3.98A7.948 7.948 0 0 0 66.657 0Z"/>
  <path fill="none" stroke="#ffffff" stroke-width="3" stroke-linecap="round" d="M30 41.5h35M30 31.5h35M30 51.5h35"/>
  <path fill="none" stroke="#ffffff" stroke-width="3" stroke-linecap="round" stroke-linejoin="round" d="M65 26l6 5-6 5"/>
</svg>
